<svg id="eceb0df2-e97f-4395-aa03-d2f1ed9daf67" data-name="chef hat" xmlns="http://www.w3.org/2000/svg" viewBox="0 0 850.39 850.39"><defs><style>.b53cbd34-64ae-449c-b618-8e2b37cfeccc{fill:#c7d1ea;}.e60617a8-bd92-4f12-b315-a479afc33ede{fill:none;stroke:#38468e;stroke-linecap:round;stroke-linejoin:round;stroke-width:9px;}</style></defs><title>logo my recipe</title><path class="b53cbd34-64ae-449c-b618-8e2b37cfeccc" d="M446.66,413.69c2.56.58,4.22,3,5.79,5.27.72,1.05,2.73,4.11,4.83,11a83.16,83.16,0,0,1,2.32,9.73,121.27,121.27,0,0,1,1.58,12.54c0,.4.06.73.07.95l-25.65-.2c-1.54-6.67-1.31-10.9-.77-13.57a35.41,35.41,0,0,0,1.26-8.05,16,16,0,0,1,.24-3.25,19.23,19.23,0,0,1,1-3.25c1.59-4.63.57-6.23,2.38-8.24a7.53,7.53,0,0,1,2.07-1.55C442.9,414.37,444.72,413.25,446.66,413.69Z"/><path class="b53cbd34-64ae-449c-b618-8e2b37cfeccc" d="M393.7,297.33a38.65,38.65,0,0,0,3.47,10.49,42.91,42.91,0,0,0,15,16.37,57.82,57.82,0,0,0,13.3,6.52,73.13,73.13,0,0,0,11.06,3.07c-4,.61-15.21,1.78-26.42-4.34-3.4-1.86-12.93-7.06-16.11-17.55a24.29,24.29,0,0,1-1-7.78Z"/><path class="b53cbd34-64ae-449c-b618-8e2b37cfeccc" d="M343.92,306.25a45,45,0,0,0,1.48,21.35,36.77,36.77,0,0,0,7.12,13.15c5.31,6.15,11.36,8.61,16.17,10.56a53.59,53.59,0,0,0,13.37,3.52,56.25,56.25,0,0,1-16.45,1.89c-3.92-.14-7.24-.29-11.37-1.84a29.38,29.38,0,0,1-12-8.42,31.11,31.11,0,0,1-6.4-13.69A36.4,36.4,0,0,1,335,323a21.86,21.86,0,0,1,2.13-8.77A21,21,0,0,1,343.92,306.25Z"/><path class="b53cbd34-64ae-449c-b618-8e2b37cfeccc" d="M486,325.94a39,39,0,0,0,6.79,10.65,42.31,42.31,0,0,0,11.2,8.87,35,35,0,0,0,12.59,4.64,33.93,33.93,0,0,0,18.2-2.7c-.87.92-10.95,11.12-25.87,9.63-.93-.09-14.88-1.69-21.38-13a23,23,0,0,1-3-10.22,16.25,16.25,0,0,1,.3-4.3A16.6,16.6,0,0,1,486,325.94Z"/><path class="b53cbd34-64ae-449c-b618-8e2b37cfeccc" d="M436.52,357.2a60.07,60.07,0,0,0,16.54,7.93c5.19,1.56,9.79,2.95,15.85,2.18a39.85,39.85,0,0,0,13.53-4.65,49.28,49.28,0,0,0,5.24-3.2,78.42,78.42,0,0,0,7,9.16,39,39,0,0,0,6.69,6.33A32.84,32.84,0,0,0,506,377.7l0-18.17-21.23-11.95-22.27,6.36Z"/><rect class="b53cbd34-64ae-449c-b618-8e2b37cfeccc" x="375.19" y="354.83" width="13.74" height="45.2"/><path class="b53cbd34-64ae-449c-b618-8e2b37cfeccc" d="M442.22,478.36l64.15-.07a35.23,35.23,0,0,1-7,10.43,27.76,27.76,0,0,1-9.44,6.88c-8.94,4-13.41,6-19.95,5.69-11.23-.6-18.47-7.92-20.38-10A32.5,32.5,0,0,1,442.22,478.36Z"/><path class="b53cbd34-64ae-449c-b618-8e2b37cfeccc" d="M302.16,476.4h93.32l10,25.33-57.46.7c-4,.49-19.79,1.89-33.54-9.69A47.47,47.47,0,0,1,302.16,476.4Z"/><path class="e60617a8-bd92-4f12-b315-a479afc33ede" d="M392.87,350.35a37,37,0,0,1-21.18,7.71,36.22,36.22,0,0,1-21.34-6,31.42,31.42,0,0,1-14.42-31.89,28.12,28.12,0,0,1,4.74-12.52,22.93,22.93,0,0,1,10.06-8.55,22.21,22.21,0,0,1,13.67-.94c8.06,2,14.59,8.68,14.71,8.51,0,0,0,0,0,0A64.36,64.36,0,0,1,375,287.71a66.66,66.66,0,0,1,3.15-24.26,69.24,69.24,0,0,1,9.71-19.17,71.9,71.9,0,0,1,30.81-24.2,70.13,70.13,0,0,1,32.56-4.91,74.73,74.73,0,0,1,27.29,8.37c5.15,2.72,13.31,7.14,20.75,16.19A63.15,63.15,0,0,1,511.06,263,65.9,65.9,0,0,1,514,282.31a64.94,64.94,0,0,1-.69,7.75c-.15.92-.29,1.68-.4,2.22"/><path class="e60617a8-bd92-4f12-b315-a479afc33ede" d="M490.14,303.05a32.73,32.73,0,0,1,13.64-9.1,33.58,33.58,0,0,1,22.93.73,28.83,28.83,0,0,1,8,4.55c8.95,7.29,10.45,18,10.79,20.74,1.3,10.45-2.74,18.31-4.61,21.83s-4.54,8.54-10.19,12-11.38,3.58-16.74,3.64c-4.24.05-10.31,0-17.1-3.27a33.16,33.16,0,0,1-11.28-9.1,99.38,99.38,0,0,1-9.1,4.37A93.82,93.82,0,0,1,459,354.9c-14.63,2.79-29.36-1.45-34.94-3.27"/><line class="e60617a8-bd92-4f12-b315-a479afc33ede" x1="374.12" y1="359.3" x2="374.12" y2="400.03"/><line class="e60617a8-bd92-4f12-b315-a479afc33ede" x1="491.23" y1="351.52" x2="491.23" y2="385.11"/><line class="e60617a8-bd92-4f12-b315-a479afc33ede" x1="464.85" y1="354.31" x2="464.85" y2="380.86"/><line class="e60617a8-bd92-4f12-b315-a479afc33ede" x1="440.35" y1="356" x2="440.35" y2="380.25"/><path class="e60617a8-bd92-4f12-b315-a479afc33ede" d="M514.58,357.46V451a72.74,72.74,0,0,1-3.94,19.48c-2.25,6.43-5.33,15.22-13.59,22.55a30.61,30.61,0,0,1-32,6.91,38.12,38.12,0,0,1-16.92-11.64c-11.3-12.72-12.41-28.17-13.28-40.39A93.15,93.15,0,0,1,440,413.61c.87-2.4,2.95-7.59,7.89-11a10.58,10.58,0,0,1,5.33-2.18c3.73-.25,6.56,2.11,9.34,4.49a36.28,36.28,0,0,1,8.25,10.79,53.24,53.24,0,0,1,4.37,11.16A102.5,102.5,0,0,1,478.68,454l-43.35.26"/><path class="e60617a8-bd92-4f12-b315-a479afc33ede" d="M471.65,501.58l-140.89.33a52.09,52.09,0,0,1-9.46-4.36,53.41,53.41,0,0,1-18.2-17.65c-7.2-11.88-7-23.47-6.91-32,.1-7.11.22-15.37,4.91-24.57a52.06,52.06,0,0,1,13.74-16.46,57.41,57.41,0,0,1,9.55-6.34H450"/><line class="e60617a8-bd92-4f12-b315-a479afc33ede" x1="326.21" y1="421.86" x2="419.61" y2="421.86"/><line class="e60617a8-bd92-4f12-b315-a479afc33ede" x1="316.81" y1="441.87" x2="410.21" y2="441.87"/><line class="e60617a8-bd92-4f12-b315-a479afc33ede" x1="317.99" y1="461.89" x2="411.39" y2="461.89"/><line class="e60617a8-bd92-4f12-b315-a479afc33ede" x1="325.09" y1="479.81" x2="418.48" y2="479.81"/></svg>