<svg xmlns="http://www.w3.org/2000/svg" viewBox="0 0 850.39 850.39"><defs><style>.aac4f616-307f-45a6-82a3-366b4f5ca6c8{fill:#e28d76;stroke:#e28d76;stroke-miterlimit:10;stroke-width:4px;}.afeca39b-4bdc-481b-9ab8-d28ed5d32d56,.e0c84317-03aa-4d85-8bc7-71302b3aa04b{fill:none;stroke:#38468e;stroke-linecap:round;stroke-linejoin:round;}.afeca39b-4bdc-481b-9ab8-d28ed5d32d56{stroke-width:16px;stroke-dasharray:2;}.f0c53848-bd99-4fb1-9e77-6cbcdd42e57e{fill:#c7d1ea;}.e0c84317-03aa-4d85-8bc7-71302b3aa04b{stroke-width:9px;}</style></defs><title>logo my recipe</title><g id="b879cf0d-ac43-4505-b709-8341c207a034" data-name="Layer 1"><path class="aac4f616-307f-45a6-82a3-366b4f5ca6c8" d="M233.44,625.48C235,616.16,254.65,603,272.07,591c16.59-11.58,30.54-21.15,30.32-24.13,0-4.1-16.09-3.08-35.37-.7-4.92.54-9.8,1.35-14.07,1.94-13.7,1.91-23.49,3.72-25.51-1.3C225.57,562,233.25,556.2,241,550.2c1.77-1.39,3.53-2.79,5-4.08,6.58-5.46,11.2-9.52,11.25-10.37,1.17-6.4-62.31-.9-68.39,9.67-1.12,3-5.41,4.75-7.53,2.35a3.82,3.82,0,0,1,.13-4.86c10-17.21,87.73-24.93,84.7-7.71-.82,4.52-7.66,10.38-15.37,16.83l-6.31,5.08a55,55,0,0,0-4.92,4.64l13.05-2c4.65-.61,9.8-1.34,15.41-2,19.77-2.51,42.95-4.54,43.31,7,.27,8.94-19.39,21.79-36.73,33.87-16.66,11.49-31.63,22-32.34,26.38C241,630.41,232.72,631,233.44,625.48Z"/><path class="aac4f616-307f-45a6-82a3-366b4f5ca6c8" d="M337.06,637.85a5.11,5.11,0,0,1-2.64,2.78c-7.52,3.27-14.54,6.59-21.3,10.2C301.22,671,285,695.5,270.45,711.26c-27.59,29.7-45.35,7.4-22.89-20.94,11.37-14.19,32.79-31.52,60.89-46.61,4.63-8,8.52-15.1,11.31-20.59-7.44,4.28-18.54,10.41-25.33,11.71-8.75,2.24-11.91-5.69-5.46-14.82,2-2.74,4.57-6,7.34-9.4,7-8.72,13.39-16.75,13-19.38-1.3-5.64,6.73-9.5,7.85-3.45,1.55,8-8.87,20.35-16,29.34-2.47,3-4.72,5.79-6.35,8-.58.73-.58.73-.3.69,7.24-1.43,21.8-10.47,27.83-13.89,6.21-3.84,10.36.91,7.07,8.48-1.86,4.26-4.83,10.17-8.6,17,3.77-1.79,7.81-3.63,12-5.42C336,630.37,338.67,634.14,337.06,637.85Zm-71.59,67c11.08-12,23.45-29.71,34-46.4-21.39,12.77-37.37,26.26-46.45,37.85C236.9,716.28,245.27,726.8,265.47,704.84Z"/><path class="aac4f616-307f-45a6-82a3-366b4f5ca6c8" d="M419.61,685.82a4,4,0,0,1-3.76-2.76c-1.44-4-.56-10.49,1.35-17.83a28.4,28.4,0,0,1-3.78-1.26c-12.34-4.91-13.9-14.28-9.72-19.51,3.42-4.28,11.06-5.83,21.51-2.6,4.9-12.49,10.68-24.29,14.76-29.37,2.19-3,6.24-1,6.52,3.19a5.45,5.45,0,0,1-1.07,3.67c-3.19,4.12-8.25,14.22-12.88,25.49q6.09,3,12.59,6.85c21.66-9.37,39.63-29.78,33.93-46-10.15-29.85-103.55,2.52-93.63,32.39l.2,1.19c.13,2.1-.86,5.17-3.47,5.34a3.87,3.87,0,0,1-3.76-2.91c-14-41.93,94.18-79,107.8-39.78,7.19,20.88-10.64,43.38-31.76,55.43,23.95,15,48.51,31.87,62.6,21.49,2.12-2.1,5.69-.37,6,3.67a4.86,4.86,0,0,1-2.2,4.65c-19.32,14.18-50.4-9.65-76-25.12a54.62,54.62,0,0,1-19.63,4c-2.05,6.9-2.82,11.61-2.36,13.08l.32,1.33C423.21,682.58,422.21,685.65,419.61,685.82Zm-4.16-31a39.22,39.22,0,0,0,4.48,1.21c.72-1.85,1.31-3.69,1.91-5.53-7.15-1.94-11.26-.92-12.68,1C408.6,652,408.72,652.1,415.45,654.82Zm18,.78c-1.85-.93-3.69-1.86-5.41-2.65l1.1.53c-.29.92-.71,1.85-1,2.92A32.14,32.14,0,0,0,433.48,655.6Z"/><path class="aac4f616-307f-45a6-82a3-366b4f5ca6c8" d="M488,652.91c-1-3.14.65-5.26,2.23-5.78l.84-.12c3.37,0,6.62-1.53,9.54-4.07a35.64,35.64,0,0,1-1.7-7.49c-2.18-20.43,10.89-26,16.64-18.7,5.61,6.85,2.21,19-4.36,28,4.83,3.31,12.12,0,18.59-15.4,2.15-5.28,9.58-.13,7.09,5.26-8.91,20.91-22.84,24.2-31.2,16.2-3.91,3.33-8.65,5.67-13.63,5.72A5,5,0,0,1,488,652.91Zm22.53-30.1c-1.35-1.45-5.09.88-3.87,12.63a3.73,3.73,0,0,1,.07.61C510.64,630.36,512,624.69,510.55,622.81Z"/><path class="aac4f616-307f-45a6-82a3-366b4f5ca6c8" d="M575.86,614.46c-11,45.09-37.46,38.33-40.64,12.87-2.8-23.65,11.65-34.84,19.7-22.1,1.4,2.49.93,5.25-1.08,6.27-1.81.91-4.17-.08-5.36-2.16-2.05-3-7.15,2.44-5.14,18.24,2.09,17.27,16.08,18.59,24.7-17.23C569.36,604.8,577.49,608.75,575.86,614.46Z"/><path class="aac4f616-307f-45a6-82a3-366b4f5ca6c8" d="M567.26,571.08c3.21-4.26,7.75-3.52,10.26-.15s1.87,8.7-2.66,10.57c-4.92,2.16-9.23-2.86-8.14-8A4.31,4.31,0,0,1,567.26,571.08ZM603.11,593c-.61,7.55-2.45,18.83-8.93,20.27-4.69,1.06-8.77-2.83-12.15-7.79l-.29,3.39c-.21,3.71-4.7,4.24-7.21.87a5.42,5.42,0,0,1-1.09-3.67,145.4,145.4,0,0,0,.83-14.82c-.18-3,1.08-4.73,3-4.88,2.62-.26,4.78,2.06,5.82,4.65,2.71,5.84,6.1,13.79,7.78,13.47,2-.53,3.3-7.12,3.9-14.29C595.08,584.61,603.76,587.13,603.11,593ZM575.18,577l-.09.07Z"/><path class="aac4f616-307f-45a6-82a3-366b4f5ca6c8" d="M593.3,582.08c-1.83,2-5.8.84-7.39-1.87-9.47-16.39,7.14-42.85,25.93-30.54,14.42,9.33,16.7,33,7.94,43.82,14.19,27,36.26,63.93,42.3,70.67,1.71,1.69,2,4.24.69,5.74s-4.3,1.4-6.34-.6c-6.42-6.76-28.39-43.54-43-71.18a13.31,13.31,0,0,1-5.58,1c-5.83.19-8.12-8.92-2-8.53a7.94,7.94,0,0,0,3.39-.62l-.82-1.55c-1.1,1.89-4.17,2.16-6.51,0a5.38,5.38,0,0,1-1.8-3.38c-.54-5.45-1-11.64-1.12-15.1-.51-7.5,7.21-7.1,9.9.45a119.08,119.08,0,0,0,6.08,13.18c3.67-8.54,1.41-21.94-6.67-27.31-10.59-6.84-21.07,10.59-14.77,21.08A4,4,0,0,1,593.3,582.08ZM604,570.92"/><path class="aac4f616-307f-45a6-82a3-366b4f5ca6c8" d="M635.19,569.49c-2.89-1.58-3.13-4.28-2.33-5.74l.53-.66c2.47-2.31,3.78-5.65,4.18-9.5a34.48,34.48,0,0,1-6.37-4.3c-15.58-13.4-9.85-26.38-.68-25,8.78,1.14,14.63,12.33,16,23.35,5.79-.9,8.82-8.31,3-24-2-5.32,6.89-6.66,8.77-1,7.81,21.34-.09,33.28-11.66,33.18-.57,5.1-2.42,10-6,13.5A5,5,0,0,1,635.19,569.49ZM631,532.13c-2-.14-3.12,4.12,5.82,11.85.26.15.34.32.47.4C636.25,537.57,633.39,532.48,631,532.13Z"/><path class="afeca39b-4bdc-481b-9ab8-d28ed5d32d56" d="M141.73,421.89a283.47,283.47,0,1,1,566.93,0"/><path class="f0c53848-bd99-4fb1-9e77-6cbcdd42e57e" d="M446.66,413.69c2.56.58,4.22,3,5.79,5.27.72,1.05,2.73,4.11,4.83,11a83.16,83.16,0,0,1,2.32,9.73,121.27,121.27,0,0,1,1.58,12.54c0,.4.06.73.07.95l-25.65-.2c-1.54-6.67-1.31-10.9-.77-13.57a35.41,35.41,0,0,0,1.26-8.05,16,16,0,0,1,.24-3.25,19.23,19.23,0,0,1,1-3.25c1.59-4.63.57-6.23,2.38-8.24a7.53,7.53,0,0,1,2.07-1.55C442.9,414.37,444.72,413.25,446.66,413.69Z"/><path class="f0c53848-bd99-4fb1-9e77-6cbcdd42e57e" d="M393.7,297.33a38.65,38.65,0,0,0,3.47,10.49,42.91,42.91,0,0,0,15,16.37,57.82,57.82,0,0,0,13.3,6.52,73.13,73.13,0,0,0,11.06,3.07c-4,.61-15.21,1.78-26.42-4.34-3.4-1.86-12.93-7.06-16.11-17.55a24.29,24.29,0,0,1-1-7.78Z"/><path class="f0c53848-bd99-4fb1-9e77-6cbcdd42e57e" d="M343.92,306.25a45,45,0,0,0,1.48,21.35,36.77,36.77,0,0,0,7.12,13.15c5.31,6.15,11.36,8.61,16.17,10.56a53.59,53.59,0,0,0,13.37,3.52,56.25,56.25,0,0,1-16.45,1.89c-3.92-.14-7.24-.29-11.37-1.84a29.38,29.38,0,0,1-12-8.42,31.11,31.11,0,0,1-6.4-13.69A36.4,36.4,0,0,1,335,323a21.86,21.86,0,0,1,2.13-8.77A21,21,0,0,1,343.92,306.25Z"/><path class="f0c53848-bd99-4fb1-9e77-6cbcdd42e57e" d="M486,325.94a39,39,0,0,0,6.79,10.65,42.31,42.31,0,0,0,11.2,8.87,35,35,0,0,0,12.59,4.64,33.93,33.93,0,0,0,18.2-2.7c-.87.92-10.95,11.12-25.87,9.63-.93-.09-14.88-1.69-21.38-13a23,23,0,0,1-3-10.22,16.25,16.25,0,0,1,.3-4.3A16.6,16.6,0,0,1,486,325.94Z"/><path class="f0c53848-bd99-4fb1-9e77-6cbcdd42e57e" d="M436.52,357.2a60.07,60.07,0,0,0,16.54,7.93c5.19,1.56,9.79,2.95,15.85,2.18a39.85,39.85,0,0,0,13.53-4.65,49.28,49.28,0,0,0,5.24-3.2,78.42,78.42,0,0,0,7,9.16,39,39,0,0,0,6.69,6.33A32.84,32.84,0,0,0,506,377.7l0-18.17-21.23-11.95-22.27,6.36Z"/><rect class="f0c53848-bd99-4fb1-9e77-6cbcdd42e57e" x="375.19" y="354.83" width="13.74" height="45.2"/><path class="f0c53848-bd99-4fb1-9e77-6cbcdd42e57e" d="M442.22,478.36l64.15-.07a35.23,35.23,0,0,1-7,10.43,27.76,27.76,0,0,1-9.44,6.88c-8.94,4-13.41,6-19.95,5.69-11.23-.6-18.47-7.92-20.38-10A32.5,32.5,0,0,1,442.22,478.36Z"/><path class="f0c53848-bd99-4fb1-9e77-6cbcdd42e57e" d="M302.16,476.4h93.32l10,25.33-57.46.7c-4,.49-19.79,1.89-33.54-9.69A47.47,47.47,0,0,1,302.16,476.4Z"/><path class="e0c84317-03aa-4d85-8bc7-71302b3aa04b" d="M392.87,350.35a37,37,0,0,1-21.18,7.71,36.22,36.22,0,0,1-21.34-6,31.42,31.42,0,0,1-14.42-31.89,28.12,28.12,0,0,1,4.74-12.52,22.93,22.93,0,0,1,10.06-8.55,22.21,22.21,0,0,1,13.67-.94c8.06,2,14.59,8.68,14.71,8.51,0,0,0,0,0,0A64.36,64.36,0,0,1,375,287.71a66.66,66.66,0,0,1,3.15-24.26,69.24,69.24,0,0,1,9.71-19.17,71.9,71.9,0,0,1,30.81-24.2,70.13,70.13,0,0,1,32.56-4.91,74.73,74.73,0,0,1,27.29,8.37c5.15,2.72,13.31,7.14,20.75,16.19A63.15,63.15,0,0,1,511.06,263,65.9,65.9,0,0,1,514,282.31a64.94,64.94,0,0,1-.69,7.75c-.15.92-.29,1.68-.4,2.22"/><path class="e0c84317-03aa-4d85-8bc7-71302b3aa04b" d="M490.14,303.05a32.73,32.73,0,0,1,13.64-9.1,33.58,33.58,0,0,1,22.93.73,28.83,28.83,0,0,1,8,4.55c8.95,7.29,10.45,18,10.79,20.74,1.3,10.45-2.74,18.31-4.61,21.83s-4.54,8.54-10.19,12-11.38,3.58-16.74,3.64c-4.24.05-10.31,0-17.1-3.27a33.16,33.16,0,0,1-11.28-9.1,99.38,99.38,0,0,1-9.1,4.37A93.82,93.82,0,0,1,459,354.9c-14.63,2.79-29.36-1.45-34.94-3.27"/><line class="e0c84317-03aa-4d85-8bc7-71302b3aa04b" x1="374.12" y1="359.3" x2="374.12" y2="400.03"/><line class="e0c84317-03aa-4d85-8bc7-71302b3aa04b" x1="491.23" y1="351.52" x2="491.23" y2="385.11"/><line class="e0c84317-03aa-4d85-8bc7-71302b3aa04b" x1="464.85" y1="354.31" x2="464.85" y2="380.86"/><line class="e0c84317-03aa-4d85-8bc7-71302b3aa04b" x1="440.35" y1="356" x2="440.35" y2="380.25"/><path class="e0c84317-03aa-4d85-8bc7-71302b3aa04b" d="M514.58,357.46V451a72.74,72.74,0,0,1-3.94,19.48c-2.25,6.43-5.33,15.22-13.59,22.55a30.61,30.61,0,0,1-32,6.91,38.12,38.12,0,0,1-16.92-11.64c-11.3-12.72-12.41-28.17-13.28-40.39A93.15,93.15,0,0,1,440,413.61c.87-2.4,2.95-7.59,7.89-11a10.58,10.58,0,0,1,5.33-2.18c3.73-.25,6.56,2.11,9.34,4.49a36.28,36.28,0,0,1,8.25,10.79,53.24,53.24,0,0,1,4.37,11.16A102.5,102.5,0,0,1,478.68,454l-43.35.26"/><path class="e0c84317-03aa-4d85-8bc7-71302b3aa04b" d="M471.65,501.58l-140.89.33a52.09,52.09,0,0,1-9.46-4.36,53.41,53.41,0,0,1-18.2-17.65c-7.2-11.88-7-23.47-6.91-32,.1-7.11.22-15.37,4.91-24.57a52.06,52.06,0,0,1,13.74-16.46,57.41,57.41,0,0,1,9.55-6.34H450"/><line class="e0c84317-03aa-4d85-8bc7-71302b3aa04b" x1="326.21" y1="421.86" x2="419.61" y2="421.86"/><line class="e0c84317-03aa-4d85-8bc7-71302b3aa04b" x1="316.81" y1="441.87" x2="410.21" y2="441.87"/><line class="e0c84317-03aa-4d85-8bc7-71302b3aa04b" x1="317.99" y1="461.89" x2="411.39" y2="461.89"/><line class="e0c84317-03aa-4d85-8bc7-71302b3aa04b" x1="325.09" y1="479.81" x2="418.48" y2="479.81"/></g></svg>